<svg xmlns="http://www.w3.org/2000/svg" viewBox="0 0 397.43 120.72"><defs><style>.cls-1{fill:#fff}</style></defs><title>seatporn-logo_1</title><g id="Layer_2" data-name="Layer 2"><g id="Layer_1-2" data-name="Layer 1"><path d="M390 77c5.79-10.77 8.21-19.84 7.22-27s-3.4-13-7.16-17.42-9.31-7-16.44-7.67q-1.12-.1-2.23-.1a27.48 27.48 0 0 0-12.48 3.14l-5.66 2.86.17-4.46-17.84.07-3.38 1.71c-4-2.8-9.39-4.21-16.08-4.21a69.15 69.15 0 0 0-14.24 1.68l-16 .06-4.19 2.12a40.82 40.82 0 0 0-14-2.18c-6.55 0-12 1.16-16.37 3.36l-7.79 3.94c-4.3-5-10.17-7.94-17.48-8.62q-2.93-.27-5.43-.27c-4.38 0-7.79.62-10.27 1.88l-2.76 1.33-.06-3.9h-16.66l-3.54 2h-13.09l-.55-25h-16.85L146.5 5.48l.43 19.83h-.21l-4.53 2.25a28.54 28.54 0 0 0-13.45-3c-1 0-2.12 0-3.23.11-5.84.43-12.52 2.22-19.85 5.35a33.6 33.6 0 0 0-18.44-5.56 37.82 37.82 0 0 0-9.67 1.3 36.87 36.87 0 0 0-7.21 2.7L60 33.67l.39-.18a29.16 29.16 0 0 0-6.53 4.32c-4.23-1.85-8.81-3.72-13.69-5.57-5.25-2-8.3-4.39-9.1-7.13a6.5 6.5 0 0 1 0-4c3.16.25 7.75 2.09 14 5.71l10.34-5.23 9.22-13.73C54.46 2.62 45.71 0 38.46 0A22.84 22.84 0 0 0 28 2.3L17.68 7.53q.57-.29 1.17-.54a19.49 19.49 0 0 0-2.62 1.36c-8.7 5.39-13 12.8-12.94 22S7.56 46 15.64 49.46c7.81 3.29 14.43 6.15 19.68 8.48 5.06 2.24 7.45 5.83 7.3 11a9.58 9.58 0 0 1-.62 3.24c-6-.08-13.1-3.8-21.67-11.47L10 65.94 0 81.57C11.43 91 22.06 95.74 31.71 95.74a27.87 27.87 0 0 0 7.78-1.09 40.92 40.92 0 0 0 7.42-2.91l-.24.13L54 88.16a31.89 31.89 0 0 0 15.52 7 37.27 37.27 0 0 0 6.58.59 36.81 36.81 0 0 0 18.25-4.94q-.83.47-1.67.89l1.71-.86c3.86 2.79 9.46 4.3 16.65 4.48h1.78c11.39.05 14.27-3.71 14.27-3.71l.62 3.6h18.11l8.46-5a19.19 19.19 0 0 0 3.5 2.15 31 31 0 0 0 13.26 3.21 24.06 24.06 0 0 0 7.67-1.23c.48-.15.91-.32 1.35-.5s1.13-.45 1.86-.68l.6 27.43 17 .13 10.34-5.23-.47-20.49c.83.07 1.66.11 2.52.11a40.94 40.94 0 0 0 8.43-.94 22.2 22.2 0 0 0 5.8-2.08l-.32.18 10.34-5.23.05.05A32.82 32.82 0 0 0 258.57 96c5.81-.05 10.52-1.69 15.56-4.43-.47.26-.95.52-1.41.75l4.41-2.23.11 4.92 16.86.13 10.34-5.23-.23-10.54a22 22 0 0 1 2.95 1.18c4.16 2 7.77 7.39 10.7 15.91 3 8.84 9.36 14.71 19.16 17.55l10.34-5.23 7-14.37a20.91 20.91 0 0 1-4.79-2l4.86-2.41-.84-41.3a6.34 6.34 0 0 1 .32-1.44l.92-.06h1.09c6.71 0 10.75 2.72 12.27 8.29a23.25 23.25 0 0 1-2.39 17.75 53.26 53.26 0 0 0-6.2 17.19 33.87 33.87 0 0 0 .77 14.82c1.34 4.47 4.46 8.76 9.63 13.06l10.35-5.31 11.08-12.8c-6.64-5.06-7.11-12.67-1.43-23.2zm-263.13-1.65a19.19 19.19 0 0 1-2.85.23 10.27 10.27 0 0 1-6.85-2.28c-2.07-1.7-3.14-3.37-3.18-5a4.17 4.17 0 0 1 .29-1.61 44.2 44.2 0 0 1 12.46 3.09zM117 47.15h1.09a16.28 16.28 0 0 1 3.56.49h-.11a30.41 30.41 0 0 0-10.24 1.76 29 29 0 0 0-3.36 1.43L97.6 56.07l.2-.09c-.58.29-1.13.59-1.66.91v-4.08l.45-.23C104.13 49 111 47.15 117 47.15zm-26.32 2.06h-1.89l1.58-.8zm-14 22.1h9.16l1.48-1c0 .13 0 .15-.05.28a34 34 0 0 0-.19 4.17 17.79 17.79 0 0 1-3.62-.45 29.84 29.84 0 0 1-6.74-3zm-4.78-22.2a8.79 8.79 0 0 1 1.46-3.48 26.61 26.61 0 0 1 4.2-.36 16.42 16.42 0 0 1 10.82 3.63l.37.3zm108.7 22.25c-4.29-1.08-6.5-4-6.91-9l-.32-13H181l.48 22.2c-.3-.09-.59-.12-.88-.2zM224.15 68a11 11 0 0 1-2.29 5.52q-.68.06-1.38.06c-3.44 0-7.2-1.11-11.74-3.41l-.52-23.76h.42a14.44 14.44 0 0 1 3.82.54c5.25 1.43 8.69 4.1 10.21 7.92A26.13 26.13 0 0 1 224.15 68zm44.69 4.7h-1.13c-3.9 0-7-1.06-9.12-3.15-2.64-2.56-4-6.78-4.1-12.54-.07-4.78.7-8.5 2.33-11.18h.48c8.47 0 12.91 5.15 13.58 15.71.29 4.76-.4 8.46-2.04 11.16zm34.23-28.53h.34a11.48 11.48 0 0 1 6.49 1.64c2.1 1.41 3.35 3.8 3.72 7.1a10.31 10.31 0 0 1-.43 4.65h-.94a52.81 52.81 0 0 1-8.87-.87z"/><path class="cls-1" d="M378.79 81.7c-5.74 10.69-5.31 18.82 1.29 24.18l-10.17 11c-4.45-3.78-7.35-7.8-8.59-12a32.65 32.65 0 0 1-.74-14.37 52.19 52.19 0 0 1 6.08-16.86 24.21 24.21 0 0 0 2.47-18.5c-1.64-6-6.1-9-13.26-9h-1.1c-7.82.32-12 2.88-12.49 7.65l.82 40.36-9.57-.11.78.84a19.72 19.72 0 0 0 8.9 5.49l-6.68 12.42c-8.89-2.69-14.86-8.3-17.74-16.69-3-8.79-6.8-14.34-11.21-16.5a23 23 0 0 0-10.28-2.34 29.19 29.19 0 0 0-4.13.3l-.05 16.51-14.94-.08-.13-5.91c-7.14 4.38-12.52 6.82-19.52 6.88a31.72 31.72 0 0 1-21.67-8.57 18 18 0 0 1-2.36-2.63c-4.18 5.16-8.62 8.26-14.38 9.48a40.42 40.42 0 0 1-8.33.94 24.58 24.58 0 0 1-13.21-3.53l-.06 29.05-15-.12-.61-27.77a30.65 30.65 0 0 0-3.18 1.07c-.44.17-.85.34-1.3.49a23.21 23.21 0 0 1-7.43 1.19 30.05 30.05 0 0 1-12.85-3.11c-7.1-3.37-10.81-10.39-11-20.86l-.49-22.21h-3.9a2.76 2.76 0 0 0-.22 1.76l.56 36.9a20.36 20.36 0 0 0 1.53 7.13l-16.09.05-.94-5.41-.67 1.18c-1.65 2.88-6.39 4.36-14.13 4.36h-1.75c-7.16-.19-12.67-1.7-16.38-4.5a39.83 39.83 0 0 1-18.58 4.93 36.26 36.26 0 0 1-6.41-.58C63 93 57.58 90.37 53.51 86.4a40.38 40.38 0 0 1-14.3 7.29 27 27 0 0 1-7.51 1.05c-9.32 0-19.12-4.17-30.23-13.25l8.73-14.07c8.25 7.29 15.52 11 21.66 11q.74 0 1.46-.07c6.66-.65 10.12-3.81 10.28-9.39s-2.5-9.53-7.9-11.92c-5.26-2.34-11.88-5.2-19.7-8.5S4.39 39.31 4.27 30.37s4.09-16 12.48-21.17a21.22 21.22 0 0 1 11.41-3c7 0 15.38 2.5 25.19 7.49l-8.57 11.86c-6.35-3.62-11.05-5.41-14.37-5.46a12.44 12.44 0 0 0-8.47 2.83 6.84 6.84 0 0 0-2.13 7.67c.89 3.07 4.16 5.69 9.7 7.8S40 42.52 44.57 44.56a27.87 27.87 0 0 1 3.38 1.77c4.36-7.29 10.71-12.07 19.55-14.4a36.77 36.77 0 0 1 9.42-1.27A32.66 32.66 0 0 1 95 36.2c7.78-3.1 14.44-4.91 20.24-5.34q1.67-.12 3.24-.12c6.46 0 11.65 1.55 15.81 4.71a22.26 22.26 0 0 1 2.34 1.92l.85.84-.12-6.77h10.66l-.52-25.1h14.9l.55 25.11h18.62v-1.79h14.68l.12 6.55.87-1.38c1.95-3.06 6.37-4.6 13.18-4.6q2.43 0 5.27.26c7.87.72 14 4.11 18.2 10 5.31-5.72 13-8.66 23.53-8.72 7.59 0 13.49 1.45 18.81 4.52l.37-4.46 15.05-.06a69.46 69.46 0 0 1 14.2-1.68c8.89 0 14.78 1.18 20.43 8.77v-6.24l15.83-.05-.24 6.22.83-.65c6.04-4.74 12.24-7.14 18.41-7.14q1.06 0 2.12.09c6.85.62 12.15 3.08 15.76 7.33s6 10 6.93 16.89-1.44 15.81-7.13 26.39zM127.61 57.27c.61-3.38.18-6-1.29-7.89s-4.34-3.06-8.22-3.2h-1.15c-6.9 0-14.88 2.35-23.75 7l-2.83-7.49-1.76 2.17a17.5 17.5 0 0 0-11.05-3.53 28.49 28.49 0 0 0-5.51.57c-7 1.39-10.88 4.72-11.55 9.91l-.08.56 24.33.13.14 14.46H60.44l.25.67C62 74 65.88 78.34 72.92 80.31A19 19 0 0 0 78 81a22 22 0 0 0 10-2.6l.3-.15v-.35a31.69 31.69 0 0 1 0-7.27c.77-7.21 5.15-12.27 13-15.07a29.44 29.44 0 0 1 9.92-1.7 37.54 37.54 0 0 1 15.71 3.74l.57.26.11-.61m140.9 17.57c2.59-2.91 3.71-7.38 3.34-13.31-.7-11.07-5.61-16.65-14.62-16.65h-.39c-9.24.17-13.84 6-13.68 17.39.09 6 1.57 10.5 4.41 13.26 2.35 2.27 5.65 3.43 9.82 3.43h.77c4.57-.15 8-1.54 10.34-4.11m-43.39-6.69a27.14 27.14 0 0 0-1.54-13.66c-1.65-4.14-5.31-7-10.88-8.53a15.19 15.19 0 0 0-4-.56c-3.87 0-7.58 1.65-11.62 5.08l-.18.15.54 25.38.28.13c4.81 2.47 8.79 3.66 12.45 3.66a16.25 16.25 0 0 0 5.68-1c5.51-2 8.63-5.59 9.28-10.63M182.5 74l-.56-25.64h-20l.47 19.26c.45 5.5 3 8.74 7.68 9.93a9.94 9.94 0 0 0 2.43.3c2.92 0 5.8-1.34 9.77-3.71l.24-.14m129.74-13.22c1.92-1.84 2.7-4.53 2.32-8-.4-3.62-1.8-6.25-4.16-7.84a12.48 12.48 0 0 0-7-1.79A38.69 38.69 0 0 0 292 45.28l-.35.11.45 17.36.4.07a55.11 55.11 0 0 0 9.5 1c4.77 0 8.16-1 10.27-3m-184.36 17.3l-.2-9-.32-.13c-5.84-2.2-10.54-3.3-14.25-3.3a10.94 10.94 0 0 0-7.53 2.44c-2 1.76-3 3.58-2.94 5.42s1.25 3.85 3.55 5.75a11.2 11.2 0 0 0 7.46 2.51c3.59 0 8.08-1.18 13.92-3.56l.31-.13m199.33.4l-.32-14.68-.87 1.42c-1.53 2.49-4.54 4.34-8.5 5.22l-2.28.5 2.31.47c7.37 1.8 9.65 7.06 9.65 7.06"/></g></g></svg>